<svg xmlns="http://www.w3.org/2000/svg" 
xmlns:xlink="http://www.w3.org/1999/xlink" 
version="1.1" 
x="0px" 
y="0px" 
viewBox="0 0 95 86.5" 
 height="54" 
 width="54"
style="enable-background:new 0 0 98 98;" 
xml:space="preserve"
>
<path 
class="st0" 
d="M90.87,42.866c0.003,7.796-6.343,14.141-14.141,14.141H71.07c-0.027-0.085-0.063-0.167-0.09-0.252  c-0.127-0.389-0.265-0.772-0.411-1.152c-0.077-0.199-0.153-0.399-0.235-0.596c-0.163-0.387-0.335-0.769-0.518-1.145  c-0.129-0.265-0.265-0.525-0.403-0.785c-0.078-0.147-0.159-0.291-0.241-0.436c-0.292-0.523-0.604-1.032-0.934-1.528  c-0.032-0.049-0.064-0.099-0.097-0.147c-0.612-0.903-1.284-1.755-2.012-2.557c-0.015-0.017-0.032-0.035-0.047-0.052  c-0.735-0.806-1.522-1.558-2.362-2.251c-0.044-0.037-0.09-0.072-0.134-0.107c-0.456-0.37-0.925-0.723-1.408-1.058  c-0.166-0.115-0.332-0.228-0.5-0.339c-0.225-0.148-0.451-0.297-0.681-0.436c-0.362-0.221-0.732-0.43-1.107-0.63  c-0.182-0.097-0.366-0.189-0.551-0.283c-0.366-0.184-0.737-0.359-1.114-0.524c-0.118-0.051-0.234-0.104-0.353-0.153  c-0.444-0.185-0.897-0.353-1.355-0.511c-0.122-0.042-0.245-0.084-0.368-0.124c-0.501-0.164-1.009-0.312-1.525-0.442  c-0.078-0.02-0.156-0.036-0.234-0.054c-0.494-0.118-0.994-0.221-1.499-0.306c-0.072-0.012-0.144-0.027-0.217-0.039  c-0.54-0.087-1.088-0.151-1.64-0.2c-0.109-0.01-0.218-0.017-0.329-0.025c-0.563-0.041-1.129-0.069-1.703-0.069  c-0.574,0-1.14,0.028-1.703,0.069c-0.109,0.008-0.22,0.015-0.328,0.025c-0.552,0.048-1.1,0.114-1.641,0.2  c-0.072,0.012-0.143,0.026-0.216,0.039c-0.506,0.087-1.007,0.188-1.502,0.307c-0.077,0.018-0.155,0.035-0.233,0.054  c-0.516,0.13-1.025,0.278-1.528,0.442c-0.122,0.04-0.243,0.082-0.366,0.124c-0.46,0.158-0.915,0.327-1.361,0.514  c-0.115,0.048-0.227,0.099-0.341,0.148c-0.38,0.166-0.755,0.344-1.124,0.529c-0.183,0.091-0.365,0.183-0.545,0.279  c-0.377,0.201-0.748,0.411-1.112,0.634c-0.228,0.139-0.449,0.286-0.672,0.431c-0.173,0.114-0.343,0.23-0.513,0.347  c-0.473,0.328-0.932,0.674-1.38,1.036c-0.053,0.043-0.107,0.084-0.16,0.128c-0.276,0.228-0.547,0.463-0.812,0.704  c-0.005,0.005-0.011,0.011-0.017,0.016c-0.529,0.482-1.035,0.989-1.52,1.519c-0.02,0.023-0.041,0.045-0.062,0.068  c-0.723,0.797-1.391,1.646-2,2.542c-0.039,0.057-0.076,0.116-0.115,0.173c-0.322,0.485-0.627,0.982-0.912,1.493  c-0.087,0.153-0.172,0.307-0.254,0.461c-0.136,0.254-0.269,0.509-0.395,0.77c-0.184,0.38-0.358,0.766-0.523,1.157  c-0.08,0.192-0.154,0.385-0.228,0.578c-0.151,0.389-0.292,0.783-0.422,1.181c-0.026,0.079-0.059,0.154-0.084,0.233l-5.659,0  c-7.799,0-14.143-6.345-14.143-14.144c0-7.799,6.345-14.143,14.143-14.143l3.577,0l0.17-1.249c1.055-7.77,7.773-13.63,15.626-13.63  c5.271,0,10.172,2.618,13.113,7.004l0.857,1.277l1.222-0.935c1.723-1.321,3.786-2.019,5.963-2.019c4.81,0,8.981,3.579,9.703,8.327  l0.186,1.227l5.036,0C84.526,28.723,90.87,35.067,90.87,42.866z M68.537,58.654c0.454,1.68,0.701,3.446,0.701,5.269  c-0.001,11.159-9.078,20.235-20.235,20.235c-11.156,0-20.233-9.076-20.233-20.233c0-1.829,0.248-3.599,0.705-5.286  c0.108-0.402,0.232-0.796,0.363-1.185c0.049-0.143,0.094-0.287,0.145-0.429c0.137-0.381,0.291-0.755,0.45-1.124  c0.09-0.206,0.182-0.41,0.277-0.613c0.103-0.218,0.213-0.431,0.322-0.644c0.184-0.355,0.377-0.704,0.58-1.048  c0.063-0.106,0.128-0.211,0.193-0.316c0.301-0.484,0.619-0.955,0.958-1.411c0.013-0.018,0.026-0.037,0.04-0.054  c0.57-0.76,1.192-1.478,1.86-2.15c0.035-0.037,0.074-0.073,0.109-0.109c0.387-0.384,0.793-0.751,1.21-1.104  c0.079-0.067,0.158-0.134,0.238-0.199c0.224-0.183,0.451-0.363,0.682-0.536c0.268-0.199,0.539-0.393,0.816-0.579  c0.193-0.13,0.391-0.253,0.588-0.378c0.24-0.149,0.483-0.295,0.729-0.433c0.203-0.116,0.408-0.228,0.616-0.337  c0.312-0.163,0.627-0.318,0.948-0.464c0.131-0.06,0.261-0.121,0.393-0.179c0.413-0.178,0.831-0.343,1.257-0.494  c0.103-0.037,0.207-0.07,0.31-0.105c0.463-0.156,0.93-0.301,1.406-0.422c0.007-0.002,0.013-0.003,0.02-0.004  c0.485-0.124,0.979-0.225,1.477-0.314c0.08-0.014,0.159-0.029,0.238-0.042c0.488-0.08,0.982-0.143,1.48-0.187  c0.087-0.008,0.174-0.013,0.262-0.02c0.515-0.039,1.033-0.065,1.557-0.065c0.524,0,1.041,0.026,1.557,0.065  c0.088,0.007,0.174,0.012,0.262,0.02c0.498,0.044,0.992,0.107,1.48,0.187c0.08,0.013,0.159,0.029,0.239,0.043  c0.497,0.088,0.989,0.19,1.474,0.313c0.008,0.002,0.015,0.003,0.023,0.005c0.475,0.122,0.942,0.268,1.404,0.422  c0.104,0.035,0.209,0.069,0.313,0.106c0.425,0.151,0.842,0.315,1.255,0.493c0.134,0.057,0.265,0.119,0.399,0.18  c0.318,0.145,0.631,0.3,0.94,0.46c0.212,0.11,0.421,0.225,0.628,0.343c0.243,0.137,0.482,0.28,0.719,0.428  c0.199,0.124,0.399,0.249,0.593,0.381c0.253,0.17,0.501,0.349,0.746,0.53c0.256,0.19,0.507,0.386,0.754,0.587  c0.077,0.063,0.153,0.128,0.229,0.191c0.422,0.355,0.83,0.726,1.222,1.114c0.034,0.034,0.068,0.066,0.102,0.1  c0.67,0.673,1.294,1.393,1.864,2.154c0.012,0.015,0.023,0.032,0.033,0.047c0.341,0.458,0.661,0.931,0.963,1.417  c0.065,0.105,0.13,0.21,0.193,0.317c0.203,0.34,0.394,0.687,0.577,1.041c0.112,0.217,0.223,0.432,0.327,0.654  c0.095,0.2,0.186,0.404,0.275,0.607c0.161,0.372,0.314,0.748,0.454,1.132c0.05,0.138,0.094,0.277,0.141,0.416  C68.301,57.843,68.427,58.245,68.537,58.654z M60.696,63.925c0-0.798-0.647-1.443-1.443-1.443l-8.805,0.001v-8.807  c0-0.798-0.647-1.443-1.443-1.443c-0.797,0-1.443,0.646-1.443,1.443v8.807h-8.807c-0.798,0-1.443,0.645-1.443,1.443  c0,0.798,0.646,1.443,1.443,1.443h8.807v8.806c0,0.798,0.647,1.443,1.443,1.443c0.797,0,1.443-0.646,1.443-1.443v-8.806h8.805  C60.051,65.369,60.696,64.722,60.696,63.925z"
fill = "#616161"
/>
<!-- <text x="0" y="113" fill="#000000" font-size="5px" font-weight="bold" font-family="'Helvetica Neue', Helvetica, Arial-Unicode, Arial, Sans-serif">Created by Good Father</text><text x="0" y="118" fill="#000000" font-size="5px" font-weight="bold" font-family="'Helvetica Neue', Helvetica, Arial-Unicode, Arial, Sans-serif">from the Noun Project</text> -->
</svg>